<?xml version="1.0" encoding="UTF-8" standalone="no"?>
<!-- Created with Inkscape (http://www.inkscape.org/) -->

<svg
   width="512"
   height="512"
   viewBox="0 0 135.46667 135.46667"
   version="1.1"
   id="svg5"
   inkscape:version="1.1 (c4e8f9ed74, 2021-05-24)"
   sodipodi:docname="linkedin.svg"
   xmlns:inkscape="http://www.inkscape.org/namespaces/inkscape"
   xmlns:sodipodi="http://sodipodi.sourceforge.net/DTD/sodipodi-0.dtd"
   xmlns="http://www.w3.org/2000/svg"
   xmlns:svg="http://www.w3.org/2000/svg">
  <sodipodi:namedview
     id="namedview7"
     pagecolor="#505050"
     bordercolor="#eeeeee"
     borderopacity="1"
     inkscape:pageshadow="0"
     inkscape:pageopacity="0"
     inkscape:pagecheckerboard="0"
     inkscape:document-units="px"
     showgrid="false"
     inkscape:zoom="0.80566406"
     inkscape:cx="-16.135758"
     inkscape:cy="319.61212"
     inkscape:window-width="2560"
     inkscape:window-height="1010"
     inkscape:window-x="0"
     inkscape:window-y="0"
     inkscape:window-maximized="1"
     inkscape:current-layer="layer1" />
  <defs
     id="defs2" />
  <g
     inkscape:label="Camada 1"
     inkscape:groupmode="layer"
     id="layer1">
    <g
       id="g1128"
       transform="matrix(0.99764478,0,0,0.99764459,0.03302706,0.03302966)">
      <rect
         style="fill:#ffffff;stroke:none;stroke-width:6.00538;stroke-linecap:round;stroke-linejoin:round"
         id="rect977"
         width="93.724922"
         height="93.724937"
         x="21.01734"
         y="22.822701" />
      <path
         style="fill:#027bb5;stroke:none;stroke-width:0.179457"
         d="M 14.022917,14.022917 V 121.69737 H 121.69735 V 14.022917 H 14.022917 m 19.91977,11.357751 c 1.58372,-0.206304 3.33719,-0.101286 4.84535,0.432439 9.55826,3.382718 8.76111,18.246851 -1.61511,19.770086 -1.61422,0.236883 -3.28497,0.156128 -4.84535,-0.339893 -9.95215,-3.163116 -8.90428,-18.492277 1.61511,-19.862632 m 75.372103,83.934132 -12.382551,-0.17945 -5.024807,-0.17946 c 0.875034,-3.67529 0.179457,-8.24571 0.179457,-12.023654 0,-5.490679 0.213195,-11.034477 -0.151642,-16.510081 -0.171202,-2.571266 -0.08399,-5.051905 -0.92582,-7.537211 -2.12101,-6.261448 -10.70194,-7.852158 -15.23647,-3.048084 -3.18932,3.379004 -3.06747,8.596728 -3.06747,12.918241 v 26.739159 h -11.66473 l -5.92209,-0.17946 c 0.98001,-6.07642 0.17946,-12.866202 0.17946,-19.022488 V 53.14463 h 16.51008 v 7.537211 c 2.68737,-2.603927 4.25188,-5.480988 7.89612,-7.099514 2.87437,-1.276481 6.01254,-1.883226 9.15233,-1.873177 2.593517,0.0083 5.214313,0.386731 7.716667,1.055928 14.048996,3.75712 12.920926,21.28275 12.920926,32.681884 v 7.716668 10.76745 c 0,1.70287 0.30454,3.74653 -0.17946,5.38372 M 43.992307,53.14463 v 13.279848 26.739152 10.22908 l 0.17946,5.56318 -5.38373,0.17946 h -12.2031 V 53.14463 Z"
         id="path935" />
    </g>
  </g>
</svg>
