<?xml version="1.0" encoding="UTF-8" standalone="no"?>
<!-- Created with Inkscape (http://www.inkscape.org/) -->

<svg
   width="512"
   height="512"
   viewBox="0 0 135.46667 135.46667"
   version="1.1"
   id="svg5"
   inkscape:version="1.1 (c4e8f9ed74, 2021-05-24)"
   sodipodi:docname="linkedin_default.svg"
   xmlns:inkscape="http://www.inkscape.org/namespaces/inkscape"
   xmlns:sodipodi="http://sodipodi.sourceforge.net/DTD/sodipodi-0.dtd"
   xmlns="http://www.w3.org/2000/svg"
   xmlns:svg="http://www.w3.org/2000/svg">
  <sodipodi:namedview
     id="namedview7"
     pagecolor="#505050"
     bordercolor="#eeeeee"
     borderopacity="1"
     inkscape:pageshadow="0"
     inkscape:pageopacity="0"
     inkscape:pagecheckerboard="0"
     inkscape:document-units="px"
     showgrid="false"
     inkscape:zoom="0.40283203"
     inkscape:cx="-1432.3588"
     inkscape:cy="-160.11636"
     inkscape:window-width="2560"
     inkscape:window-height="1010"
     inkscape:window-x="0"
     inkscape:window-y="0"
     inkscape:window-maximized="1"
     inkscape:current-layer="layer1" />
  <defs
     id="defs2" />
  <g
     inkscape:label="Camada 1"
     inkscape:groupmode="layer"
     id="layer1">
    <path
       style="fill:#ffccaa;stroke:none;stroke-width:0.179457"
       d="M 14.582891,15.42028 V 123.09473 H 122.25733 V 15.42028 H 14.582891 m 19.91977,11.357751 c 1.58372,-0.206304 3.33719,-0.101286 4.84535,0.432439 9.55826,3.382718 8.76111,18.246851 -1.61511,19.770086 -1.61422,0.236883 -3.28497,0.156128 -4.84535,-0.339893 -9.95215,-3.163116 -8.90428,-18.492277 1.61511,-19.862632 m 75.372109,83.934129 -12.382549,-0.17945 -5.02481,-0.17946 c 0.87503,-3.67529 0.17946,-8.24571 0.17946,-12.023651 0,-5.490679 0.21319,-11.034477 -0.15165,-16.510081 -0.1712,-2.571267 -0.084,-5.051906 -0.92582,-7.537212 -2.12101,-6.261448 -10.70194,-7.852158 -15.23647,-3.048084 -3.18932,3.379004 -3.06747,8.596728 -3.06747,12.918242 v 26.739156 h -11.66473 l -5.92209,-0.17946 c 0.98001,-6.07642 0.17946,-12.866199 0.17946,-19.022485 V 54.541993 h 16.51008 v 7.53721 c 2.68737,-2.603926 4.25188,-5.480987 7.89612,-7.099513 2.87437,-1.276481 6.01254,-1.883226 9.15233,-1.873177 2.59352,0.0083 5.21432,0.386731 7.71667,1.055928 14.048999,3.75712 12.920929,21.282749 12.920929,32.681884 v 7.716668 10.767447 c 0,1.70287 0.30454,3.74653 -0.17946,5.38372 M 44.552281,54.541993 V 67.82184 94.560993 104.79007 l 0.17946,5.56318 -5.38373,0.17946 h -12.2031 V 54.541993 Z"
       id="path935"
       inkscape:export-filename="/home/marcos/development/django-pythonpro-br/djangopythonpro/static/linkedin.png"
       inkscape:export-xdpi="96"
       inkscape:export-ydpi="96" />
  </g>
</svg>
